<svg width="15" height="15" viewBox="0 0 15 15" fill="none" xmlns="http://www.w3.org/2000/svg">
<path d="M12.9786 0H2.02128C0.90498 0 0 0.904943 0 2.02128V12.9786C0 14.095 0.904943 14.9999 2.02128 14.9999H7.42536L7.43457 9.63976H6.04201C5.86103 9.63976 5.71415 9.49343 5.71345 9.31246L5.70677 7.58465C5.70607 7.40269 5.8534 7.25481 6.03537 7.25481H7.4254V5.58532C7.4254 3.64788 8.60867 2.59293 10.337 2.59293H11.7552C11.9367 2.59293 12.0838 2.74004 12.0838 2.92153V4.37842C12.0838 4.55983 11.9368 4.7069 11.7554 4.70701L10.885 4.70742C9.94513 4.70742 9.76313 5.15405 9.76313 5.80952V7.25485H11.8284C12.0252 7.25485 12.1779 7.42669 12.1547 7.62212L11.9499 9.34992C11.9303 9.51526 11.7901 9.63984 11.6237 9.63984H9.77234L9.76313 15H12.9786C14.0949 15 14.9999 14.0951 14.9999 12.9788V2.02128C14.9999 0.904943 14.0949 0 12.9786 0Z" fill="#475993"/>
</svg>
